<svg width="112" height="64" viewBox="0 0 112 64" fill="none" xmlns="http://www.w3.org/2000/svg">
<path d="M35.7383 45.9065L35.8131 14.4299C35.2897 13.757 34.6916 13.0841 34.0935 12.4112C32.2991 10.6168 30.2056 9.19626 27.7383 8.14953C25.271 7.1028 22.6542 6.57944 19.8879 6.57944C17.1963 6.57944 14.5794 7.1028 12.1869 8.14953C9.79439 9.19626 7.70093 10.6168 5.90654 12.3364C4.03738 14.1308 2.61682 16.2243 1.57009 18.6916C0.523364 21.1589 0 23.8505 0 26.6168C0 29.4579 0.523364 32.0748 1.57009 34.4673C2.61682 36.8598 4.11215 39.028 5.90654 40.7477C7.70093 42.5421 9.86916 43.8878 12.1869 44.9346C14.5794 45.9813 17.1963 46.5047 19.8879 46.5047C23.2523 46.5047 26.3925 45.757 29.0841 44.2617C29.6822 43.9626 30.2056 43.5888 30.729 43.2897C31.028 43.0654 31.4766 43.2897 31.4766 43.6635V44.1121C31.4766 45.6822 31.1776 47.2523 30.5794 48.6729C29.9813 50.0935 29.1589 51.2897 28.1869 52.3364C27.1402 53.3832 25.8692 54.2056 24.4486 54.8785C23.028 55.4766 21.5327 55.7757 19.8131 55.7757H19.0654C18.7664 55.7757 18.6168 56 18.6168 56.2243V63.5514C18.6168 63.8505 18.8411 64 19.0654 64H19.8131C22.5794 64 25.1963 63.4766 27.6636 62.4299C30.1308 61.3832 32.2243 59.8878 34.0187 58.0934C35.8131 56.2991 37.1589 54.1308 38.2056 51.8131C38.9533 50.0187 39.4766 48.1495 39.6262 46.2056H35.9626C35.8878 46.2056 35.7383 46.0561 35.7383 45.9065ZM30.729 31.1028C30.1308 32.5234 29.3084 33.7196 28.3365 34.7664C27.2897 35.8131 26.0187 36.6355 24.5981 37.3084C23.1776 37.9065 21.6822 38.2056 19.9626 38.2056C18.3925 38.2056 16.8972 37.9065 15.4766 37.3084C14.0561 36.7103 12.785 35.8131 11.7383 34.7664C10.6916 33.7196 9.86916 32.4486 9.19626 31.028C8.59813 29.6075 8.29907 28.1121 8.29907 26.5421C8.29907 24.972 8.59813 23.4766 9.19626 22.0561C9.79439 20.6355 10.6916 19.3645 11.7383 18.3178C12.785 17.271 14.0561 16.4486 15.4766 15.7757C16.8972 15.1776 18.3925 14.8785 19.9626 14.8785C21.6075 14.8785 23.1776 15.1776 24.5981 15.7757C26.0187 16.3738 27.2897 17.271 28.3365 18.3178C29.3832 19.3645 30.2056 20.5607 30.729 21.9813C31.3271 23.4019 31.6262 24.8972 31.6262 26.5421C31.5514 28.1869 31.2523 29.6822 30.729 31.1028Z" fill="white"/>
<path d="M73.1962 34.0935C72.299 32.0748 71.8504 29.9065 71.7008 27.6636C71.7008 27.215 71.6261 26.6916 71.6261 26.243V14.0561C71.1027 13.3832 70.5793 12.7103 69.9812 12.1122C68.1868 10.3178 66.0934 8.8972 63.6261 7.85047C61.1588 6.80374 58.542 6.28037 55.7756 6.28037C52.5606 6.28037 49.57 7.02804 46.7289 8.4486C45.9812 8.82243 45.3083 9.19626 44.6354 9.64486C44.4111 9.79439 44.1121 9.64486 44.1121 9.3458V0.299065C44.1121 0.149533 43.9625 0 43.7382 0H36.1868C36.0373 0 35.8878 0.149533 35.8878 0.299065V14.3551L35.813 45.8318C35.813 45.9813 35.9625 46.1308 36.1121 46.1308H39.7756H43.5887C43.7382 46.1308 43.8878 45.9813 43.8878 45.8318V42.9159C43.8878 42.6168 44.1868 42.4673 44.4111 42.6168C45.5326 43.3645 46.6541 44.0374 47.9251 44.5607C50.3177 45.6075 53.0092 46.1308 55.7756 46.1308C58.542 46.1308 61.1588 45.6075 63.6261 44.5607C66.0186 43.514 68.1868 42.0935 69.9812 40.2991C70.5793 39.7009 71.1775 39.028 71.7008 38.3551C72.4485 37.3832 73.1214 36.2617 73.7195 35.0654C73.4952 34.8411 73.3457 34.4673 73.1962 34.0935ZM66.542 30.729C65.9438 32.1495 65.0466 33.4206 63.9999 34.4673C63.4765 34.9907 62.8784 35.4393 62.2803 35.8879C58.4672 38.4299 53.3831 38.5047 49.57 36.0374C48.8971 35.5888 48.2242 35.0654 47.6261 34.4673C46.5793 33.4206 45.7569 32.1495 45.084 30.729C44.4859 29.3084 44.1868 27.8131 44.1868 26.243C44.1868 24.6729 44.4859 23.1776 45.084 21.757C45.6821 20.3365 46.5793 19.0654 47.6261 18.0187C48.6728 16.972 49.9438 16.1495 51.3644 15.4766C52.7849 14.8785 54.2803 14.5794 55.8504 14.5794C57.4205 14.5794 58.9158 14.8785 60.3363 15.4766C61.7569 16.0748 63.0279 16.972 64.0747 18.0187C65.1214 19.0654 65.9438 20.3365 66.6167 21.757C67.2149 23.1776 67.5139 24.6729 67.5139 26.243C67.4392 27.8131 67.1401 29.3832 66.542 30.729Z" fill="#F4AF1B"/>
<path d="M109.981 18.4673C108.935 16.0748 107.514 13.9065 105.72 12.1122C103.925 10.3178 101.832 8.8972 99.3645 7.85047C96.8972 6.80374 94.2804 6.28037 91.5141 6.28037C88.2991 6.28037 85.3085 7.02804 82.4673 8.4486C81.7197 8.82243 81.0468 9.27103 80.3739 9.71963C80.1496 9.86916 79.8505 9.71963 79.8505 9.49533V0.299065C79.8505 0.149533 79.701 0 79.5515 0H71.9253C71.7757 0 71.6262 0.149533 71.6262 0.299065V13.9813V26.243C71.6262 26.6916 71.6262 27.215 71.701 27.6636C71.8505 29.9065 72.3739 32.0748 73.1963 34.0935C73.3458 34.4673 73.4954 34.8411 73.7197 35.1402C73.1215 36.3364 72.4486 37.3832 71.701 38.4299V45.6822C71.701 45.9813 71.9253 46.2056 72.2243 46.2056H79.3272C79.6262 46.2056 79.8505 45.9813 79.8505 45.6822V42.4673C81.0468 43.2897 82.3178 44.0374 83.7384 44.6355C86.1309 45.6822 88.8225 46.2056 91.5888 46.2056C94.3552 46.2056 96.972 45.6822 99.4393 44.6355C101.907 43.5888 104 42.1682 105.794 40.3738C107.589 38.5794 109.009 36.486 110.056 34.0935C111.103 31.7009 111.626 29.0093 111.626 26.243C111.551 23.5514 111.028 20.8598 109.981 18.4673ZM102.28 30.729C101.682 32.1495 100.785 33.4206 99.7384 34.4673C98.6916 35.514 97.4206 36.3364 96 37.0093C93.1589 38.2056 89.8692 38.2056 87.0281 37.0093C85.6075 36.4112 84.3365 35.514 83.2898 34.4673C82.243 33.4206 81.4206 32.1495 80.7477 30.729C80.1496 29.3084 79.8505 27.8131 79.8505 26.243C79.8505 24.6729 80.1496 23.1776 80.7477 21.757C81.3458 20.3364 82.243 19.0654 83.2898 18.0187C84.3365 16.972 85.6075 16.1495 87.0281 15.4766C88.4487 14.8785 89.944 14.5794 91.5141 14.5794C93.0842 14.5794 94.5795 14.8785 96 15.4766C97.4206 16.0748 98.6916 16.972 99.7384 18.0187C100.785 19.0654 101.608 20.3364 102.28 21.757C102.879 23.1776 103.178 24.6729 103.178 26.243C103.252 27.8131 102.879 29.3832 102.28 30.729Z" fill="white"/>
<path d="M45.0093 58.243C45.0841 58.243 45.0841 58.243 45.0093 58.243C45.0841 58.3178 45.0841 58.3925 45.0841 58.3925L44.6355 59.0654L44.5607 59.1402H44.486C44.4112 59.0654 44.3364 58.9907 44.1869 58.9907C44.1121 58.9907 43.9626 58.9159 43.8878 58.9159C43.7383 58.9159 43.5888 58.9159 43.514 58.9907C43.3645 59.0654 43.2897 59.1402 43.2149 59.2149C43.1402 59.2897 43.0654 59.4392 42.9906 59.514C42.9159 59.6635 42.9159 59.8131 42.9159 59.8878C42.9159 60.0374 42.9159 60.1869 42.9906 60.2617C43.0654 60.4112 43.1402 60.486 43.2149 60.5607C43.2897 60.6355 43.4392 60.7103 43.514 60.785C43.6635 60.8598 43.7383 60.8598 43.8878 60.8598C44.0374 60.8598 44.1121 60.8598 44.1869 60.785C44.2617 60.785 44.4112 60.7103 44.486 60.6355H44.5607C44.5607 60.6355 44.6355 60.6355 44.6355 60.7103L45.0841 61.3832C45.0841 61.4579 45.0841 61.4579 45.0841 61.4579C45.0841 61.4579 45.0841 61.5327 45.0093 61.5327C44.8598 61.6075 44.6355 61.757 44.486 61.757C44.2617 61.8318 44.1121 61.8318 43.8878 61.8318C43.6635 61.8318 43.514 61.8318 43.3645 61.757C43.2149 61.6822 43.0654 61.6075 42.8411 61.5327C42.6916 61.4579 42.542 61.3084 42.3925 61.2336C42.243 61.0841 42.1682 61.0093 42.0934 60.8598C42.0187 60.7103 41.9439 60.5607 41.8691 60.4112C41.8691 60.2617 41.8691 60.1121 41.8691 59.8878C41.8691 59.6635 41.8691 59.514 41.9439 59.3645C42.0187 59.215 42.0934 59.0654 42.1682 58.9159C42.243 58.7664 42.3925 58.6168 42.4673 58.4673C42.6168 58.3178 42.6916 58.243 42.9159 58.1682C43.0654 58.0935 43.2149 58.0187 43.4392 57.9439C43.5888 57.8692 43.8131 57.8692 43.9626 57.8692C44.1869 57.8692 44.4112 57.8692 44.5607 57.9439C44.7103 58.0187 44.8598 58.0935 45.0093 58.243Z" fill="white"/>
<path d="M46.6541 58.0935V58.0187H46.7288H48.4484C48.598 58.0187 48.8223 58.0187 48.9718 58.0935C49.1213 58.1682 49.2709 58.243 49.4204 58.3925C49.5699 58.5421 49.6447 58.6168 49.7195 58.7664C49.7942 58.9159 49.7942 59.0654 49.7942 59.2897C49.7942 59.4393 49.7942 59.514 49.7195 59.6636C49.7195 59.7383 49.6447 59.8878 49.5699 59.9626C49.4952 60.0374 49.4204 60.1122 49.3456 60.1869C49.2709 60.2617 49.1961 60.3365 49.0466 60.4112L49.7195 61.6822C49.7195 61.6822 49.7195 61.757 49.7942 61.757V61.8318V61.9065H49.7195H48.8223H48.7475L48.6727 61.8318L48.1494 60.5607H47.7008V61.757C47.7008 61.8318 47.626 61.9065 47.5512 61.9065H46.7288H46.6541V61.8318V58.0935ZM48.7475 59.215C48.7475 59.1402 48.7475 59.1402 48.7475 59.0654C48.7475 58.9907 48.6727 58.9907 48.6727 58.9159C48.6727 58.8411 48.598 58.8411 48.5232 58.8411C48.4484 58.8411 48.4484 58.7664 48.3737 58.7664C48.2989 58.7664 48.2989 58.7664 48.2241 58.7664C48.1494 58.7664 48.1494 58.7664 48.0746 58.7664H47.7008V59.7383H48.2241H48.2989H48.3737C48.4484 59.7383 48.5232 59.7383 48.5232 59.6636C48.598 59.6636 48.598 59.5888 48.6727 59.5888C48.6727 59.514 48.7475 59.514 48.7475 59.4393C48.7475 59.3645 48.7475 59.2897 48.7475 59.215Z" fill="white"/>
<path d="M51.3645 58.0935V58.0187H51.4393H54.0561C54.1309 58.0187 54.1309 58.0187 54.1309 58.0187V58.0935V58.7664V58.8411L54.0561 58.9159H52.3365V59.5888H53.6823H53.757V59.6636V60.2617V60.3364H53.6823H52.3365V61.0093H54.1309C54.2056 61.0093 54.2804 61.0841 54.2804 61.1589V61.8318C54.2804 61.8318 54.2804 61.8318 54.2804 61.9065C54.2804 61.9813 54.2056 61.9813 54.2056 61.9813H51.514H51.4393V61.9065V58.0935H51.3645Z" fill="white"/>
<path d="M56.972 58.0187C56.972 58.0187 57.0467 58.0187 56.972 58.0187C57.0467 57.9439 57.0467 57.9439 57.0467 57.9439C57.0467 57.9439 57.0467 57.9439 57.1215 57.9439H57.7944H57.8692C57.8692 57.9439 57.8692 57.9439 57.9439 58.0187L58.0187 58.1682L59.4392 61.757V61.8318H59.3645H58.6168C58.5421 61.8318 58.5421 61.8318 58.5421 61.8318L58.4673 61.757C58.4673 61.6822 58.3925 61.6075 58.3925 61.4579C58.3925 61.3832 58.3178 61.3084 58.3178 61.1589H56.8972C56.8972 61.2336 56.8224 61.3084 56.8224 61.4579C56.8224 61.5327 56.7477 61.6075 56.7477 61.757C56.7477 61.8318 56.6729 61.8318 56.5981 61.8318H55.7757H55.7009V61.757L56.972 58.0187ZM57.4953 59.1402C57.4953 59.215 57.4206 59.3645 57.4206 59.4393C57.4206 59.514 57.3458 59.6636 57.3458 59.7383C57.3458 59.8131 57.271 59.9626 57.271 60.0374C57.271 60.1122 57.1963 60.2617 57.1963 60.3364H58.0187L57.4953 59.1402Z" fill="white"/>
<path d="M60.1121 58.0935V58.0187H60.1868H63.0279H63.1027L63.1775 58.0935V58.7664V58.8411L63.1027 58.9159H62.2055V61.8318V61.9065L62.1307 61.9813H61.3831H61.3083L61.2336 61.9065V58.9907H60.3364H60.2616V58.9159V58.0935H60.1121Z" fill="white"/>
<path d="M64.7476 58.0935V58.0187H64.8224H65.57H65.6448L65.7196 58.0935V61.757C65.7196 61.8318 65.6448 61.9065 65.57 61.9065H64.8224C64.7476 61.9065 64.6729 61.8318 64.6729 61.757V58.0935H64.7476Z" fill="white"/>
<path d="M67.5889 58.0935V58.0187H67.6636H68.5608H68.6356C68.6356 58.0187 68.7104 58.0187 68.7104 58.0935C68.9347 58.4673 69.159 58.8411 69.3833 59.1402C69.6076 59.514 69.8319 59.8131 70.0562 60.1869V58.0935C70.0562 58.0935 70.0562 58.0187 70.1309 58.0187H70.2057H70.9534C71.0281 58.0187 71.0281 58.0187 71.0281 58.0187L71.1029 58.0935V61.8318V61.9065H71.0281H70.2057H70.1309C70.1309 61.9065 70.1309 61.9065 70.0562 61.8318C69.8319 61.4579 69.6076 61.0841 69.3833 60.7103C69.159 60.3364 68.9347 59.9626 68.7104 59.5888V61.8318C68.7104 61.9065 68.7104 61.9065 68.7104 61.9065H68.6356H67.8879C67.8132 61.9065 67.8132 61.9065 67.8132 61.9065V61.8318V58.0935H67.5889Z" fill="white"/>
<path d="M75.3644 59.0654C75.2896 58.9907 75.2148 58.9159 75.0653 58.9159C74.9905 58.9159 74.841 58.8411 74.7662 58.8411C74.6167 58.8411 74.4672 58.8411 74.3924 58.9159C74.2429 58.9907 74.1681 59.0654 74.0933 59.1402C74.0186 59.215 73.9438 59.3645 73.8691 59.4393C73.7943 59.514 73.7943 59.7383 73.7943 59.8131C73.7943 59.9626 73.7943 60.1121 73.8691 60.1869C73.9438 60.3364 74.0186 60.4112 74.0933 60.486C74.1681 60.5607 74.3176 60.6355 74.3924 60.7103C74.5419 60.785 74.6167 60.785 74.7662 60.785C74.841 60.785 74.9158 60.785 74.9158 60.785C74.9905 60.785 75.0653 60.785 75.1401 60.785V60.1121V60.0374H75.2148H75.9625H76.0373L76.112 60.1121V61.3832C76.112 61.4579 76.112 61.4579 76.0373 61.5327C75.9625 61.6075 75.8877 61.6075 75.7382 61.6822C75.6634 61.757 75.5139 61.757 75.4391 61.757C75.3644 61.757 75.2148 61.8318 75.1401 61.8318C74.9905 61.8318 74.9158 61.8318 74.841 61.8318C74.6167 61.8318 74.4672 61.8318 74.3177 61.757C74.1681 61.6822 73.9438 61.6075 73.7943 61.5327C73.6448 61.4579 73.4952 61.3084 73.3457 61.2336C73.1962 61.0841 73.1214 61.0093 73.0466 60.8598C72.9719 60.7103 72.8971 60.5607 72.8223 60.4112C72.7476 60.2617 72.7476 60.0374 72.7476 59.8878C72.7476 59.6635 72.7476 59.514 72.8223 59.3645C72.8971 59.215 72.9719 59.0654 73.0466 58.9159C73.1214 58.7664 73.2709 58.6168 73.3457 58.5421C73.4952 58.3925 73.57 58.3178 73.7943 58.243C73.9438 58.1682 74.0934 58.0935 74.3177 58.0187C74.4672 57.9439 74.6915 57.9439 74.841 57.9439C75.0653 57.9439 75.2896 57.9439 75.4391 58.0187C75.6634 58.0935 75.813 58.1682 75.9625 58.243L76.0373 58.3178V58.3925L75.5887 58.9907L75.5139 59.0654C75.4391 59.0654 75.3644 59.0654 75.3644 59.0654Z" fill="white"/>
<path d="M81.4206 61.8318C81.4206 61.8318 81.4206 61.757 81.3459 61.757C81.3459 61.757 81.3459 61.6822 81.2711 61.6822L79.9253 58.1682C79.9253 58.0935 79.9253 58.0935 80.0001 58.0935H80.8225C80.8973 58.0935 80.972 58.0935 80.972 58.1682L81.7945 60.5608C81.8692 60.3365 81.944 60.1869 82.0187 59.9626C82.0935 59.7383 82.1683 59.5888 82.243 59.3645C82.3178 59.1402 82.3926 58.9907 82.4674 58.7664C82.5421 58.5421 82.6169 58.3925 82.6916 58.1682C82.6916 58.0935 82.7664 58.0935 82.8412 58.0935H83.6636C83.7384 58.0935 83.7384 58.0935 83.7384 58.0935C83.7384 58.0935 83.7384 58.0935 83.7384 58.1682L82.3926 61.6822V61.757C82.3926 61.757 82.3926 61.8318 82.3178 61.8318C82.3178 61.8318 82.3178 61.9065 82.243 61.9065H82.1683H81.4954C81.4954 61.8318 81.4206 61.8318 81.4206 61.8318Z" fill="white"/>
<path d="M85.7569 58.0187C85.7569 58.0187 85.8316 58.0187 85.7569 58.0187C85.8316 57.9439 85.8316 57.9439 85.8316 57.9439C85.8316 57.9439 85.8316 57.9439 85.9064 57.9439H86.5793H86.6541C86.6541 57.9439 86.6541 57.9439 86.7288 58.0187L86.8036 58.1682L88.2242 61.757V61.8318H88.1494H87.4017C87.327 61.8318 87.327 61.8318 87.327 61.8318L87.2522 61.757C87.2522 61.6822 87.1774 61.6075 87.1774 61.4579C87.1774 61.3832 87.1027 61.3084 87.1027 61.1589H85.6821C85.6821 61.2336 85.6073 61.3084 85.6073 61.4579C85.6073 61.5327 85.5326 61.6075 85.5326 61.757C85.5326 61.8318 85.4578 61.8318 85.383 61.8318H84.5606H84.4858V61.757L85.7569 58.0187ZM86.2802 59.1402C86.2802 59.215 86.2055 59.3645 86.2055 59.4393C86.2055 59.514 86.1307 59.6636 86.1307 59.7383C86.1307 59.8131 86.0559 59.9626 86.0559 60.0374C86.0559 60.1122 85.9812 60.2617 85.9812 60.3364H86.8036L86.2802 59.1402Z" fill="white"/>
<path d="M89.4954 58.0187V57.9439H89.5701H90.3926H90.4673L90.5421 58.0187V60.8598H92.0374H92.1122V60.9346V61.6075V61.6822L92.0374 61.757H89.6449C89.5701 61.757 89.4954 61.6822 89.4954 61.6075V58.0187Z" fill="white"/>
<path d="M94.6543 60.3364C94.6543 60.486 94.6543 60.5607 94.729 60.6355C94.729 60.7103 94.8038 60.785 94.8786 60.8598C94.9533 60.9346 95.0281 60.9346 95.1029 61.0093C95.1776 61.0093 95.2524 61.0841 95.3272 61.0841C95.4019 61.0841 95.4767 61.0841 95.5515 61.0093C95.6262 61.0093 95.701 60.9346 95.7758 60.8598C95.8505 60.785 95.8505 60.7103 95.9253 60.6355C95.9253 60.5607 96.0001 60.4112 96.0001 60.3364V58.0935V58.0187H96.0748H96.8225C96.8973 58.0187 96.8973 58.0187 96.8973 58.0187V58.0935V60.3364C96.8973 60.6355 96.8225 60.9346 96.7477 61.0841C96.673 61.3084 96.5234 61.4579 96.3739 61.6075C96.2244 61.757 96.0748 61.8318 95.8505 61.9065C95.6262 61.9813 95.4019 61.9813 95.1776 61.9813C94.9533 61.9813 94.729 61.9813 94.5047 61.9065C94.2804 61.8318 94.1309 61.757 93.9814 61.6075C93.8318 61.4579 93.6823 61.3084 93.6075 61.0841C93.5328 60.8598 93.458 60.6355 93.458 60.3364V58.0935V58.0187H93.5328H94.3552H94.43L94.5047 58.0935V60.3364H94.6543Z" fill="white"/>
<path d="M98.6917 58.0935V58.0187H98.7664H101.383C101.458 58.0187 101.458 58.0187 101.458 58.0187V58.0935V58.7664V58.8411L101.383 58.9159H99.6636V59.5888H101.009H101.084V59.6636V60.2617V60.3364H101.009H99.6636V61.0093H101.458C101.533 61.0093 101.608 61.0841 101.608 61.1589V61.8318C101.608 61.8318 101.608 61.8318 101.608 61.9065C101.608 61.9813 101.533 61.9813 101.533 61.9813H98.8412H98.7664V61.9065V58.0935H98.6917Z" fill="white"/>
<path d="M105.495 60.1121C105.495 58.4673 106.841 57.0467 108.561 57.0467C110.206 57.0467 111.626 58.3925 111.626 60.1121C111.626 61.757 110.28 63.1776 108.561 63.1776C106.841 63.1028 105.495 61.757 105.495 60.1121Z" fill="#F4AF1B"/>
</svg>
